<svg width="25" height="26" viewBox="0 0 25 26" fill="none" xmlns="http://www.w3.org/2000/svg">
<path d="M3.125 15.0646V11.125C3.125 7.35376 3.125 5.46815 4.29657 4.29657C5.46815 3.125 7.35376 3.125 11.125 3.125H14.8618C18.6331 3.125 20.5187 3.125 21.6903 4.29657C22.8618 5.46815 22.8618 7.35376 22.8618 11.125V16.6162C22.8618 20.3875 22.8618 22.2731 21.6903 23.4447C20.5187 24.6162 18.6331 24.6162 14.8618 24.6162H12.9934" stroke="white" stroke-width="2"/>
<path fill-rule="evenodd" clip-rule="evenodd" d="M19.875 12.8898C19.849 12.8664 19.8231 12.8436 19.7974 12.8219C18.117 11.4009 15.6553 11.6249 14.2432 13.1966L9.85183 8.07333C9.13299 7.23468 7.87039 7.13756 7.03174 7.8564C6.19308 8.57525 6.09596 9.83785 6.81481 10.6765L11.9982 16.7238L12.0139 16.7422L12.0139 16.7422C12.0653 16.8024 12.1641 16.9184 12.2626 17.0149C13.6387 18.3636 15.9113 18.0838 16.9192 16.4416C16.9914 16.3241 17.0591 16.1876 17.0944 16.1167L17.1051 16.0951C17.1565 15.9924 17.1862 15.933 17.2085 15.8899L17.2148 15.8778L17.2246 15.8873C17.2594 15.9212 17.3064 15.9681 17.3876 16.0493L19.4191 18.0808C19.506 18.1677 19.5989 18.2449 19.6964 18.3124C19.7142 18.2172 19.7309 18.1126 19.7464 17.9975C19.8707 17.0725 19.875 15.8171 19.875 13.8749V12.8898Z" fill="white"/>
<circle cx="17.1875" cy="7.8125" r="1.5625" fill="white"/>
<path d="M8.33334 16.6666V15.6666H9.33334V16.6666H8.33334ZM3.7497 21.6142C3.31844 21.9592 2.68915 21.8892 2.34414 21.458C1.99913 21.0267 2.06905 20.3974 2.50031 20.0524L3.7497 21.6142ZM7.33334 21.875V16.6666H9.33334V21.875H7.33334ZM8.33334 17.6666H3.12501V15.6666H8.33334V17.6666ZM8.95804 17.4475L3.7497 21.6142L2.50031 20.0524L7.70865 15.8858L8.95804 17.4475Z" fill="white"/>
</svg>
