<svg width="25" height="25" viewBox="0 0 25 25" fill="none" xmlns="http://www.w3.org/2000/svg">
<path d="M4.16666 9.34886C4.16666 6.4149 4.16666 4.94793 5.07523 4.03646C5.98379 3.125 7.44609 3.125 10.3707 3.125H14.5067C17.4314 3.125 18.8937 3.125 19.8022 4.03646C20.7108 4.94793 20.7108 6.4149 20.7108 9.34886V16.4312C20.7108 19.2146 20.7108 20.6063 19.8378 21.032C18.9648 21.4576 17.8739 20.5978 15.6923 18.8782L14.994 18.3278C13.7673 17.3609 13.154 16.8774 12.4387 16.8774C11.7235 16.8774 11.1101 17.3609 9.88339 18.3278L9.18518 18.8782C7.00351 20.5978 5.91268 21.4576 5.03967 21.032C4.16666 20.6063 4.16666 19.2146 4.16666 16.4312V9.34886Z" stroke="white" stroke-width="2"/>
</svg>
