<svg width="49" height="54" viewBox="0 0 49 54" fill="none" xmlns="http://www.w3.org/2000/svg">
<path fill-rule="evenodd" clip-rule="evenodd" d="M16.6601 2.5H32.3399C37.2088 2.5 41.16 6.45114 41.16 11.3201C41.16 14.7321 39.2196 17.6933 36.3828 19.1599C39.2196 20.6266 41.16 23.5879 41.16 26.9999C41.16 31.8689 37.2088 35.82 32.3399 35.82C29.5703 35.82 27.0976 34.5415 25.4802 32.5429V42.6799C25.4802 47.5489 21.5291 51.5 16.6601 51.5C11.7912 51.5 7.84 47.5489 7.84 42.6799C7.84 39.2679 9.78037 36.3066 12.6172 34.8399C9.78037 33.3733 7.84 30.4119 7.84 26.9999C7.84 23.5879 9.78035 20.6266 12.6172 19.1599C9.78036 17.6933 7.84 14.7321 7.84 11.3201C7.84 6.45114 11.7912 2.5 16.6601 2.5ZM9.8 11.3201C9.8 7.53363 12.8736 4.46 16.6601 4.46H23.5198V18.1799H16.6601L16.6389 18.1799C12.8621 18.1684 9.8 15.0994 9.8 11.3201ZM23.5202 26.9067C23.5199 26.9377 23.5198 26.9688 23.5198 26.9999C23.5198 27.0311 23.5199 27.0622 23.5202 27.0932V33.8598H16.6601C12.8736 33.86 9.8 30.7864 9.8 26.9999C9.8 23.2205 12.8622 20.1513 16.639 20.1399L16.6601 20.1399H23.5198L23.5202 26.9067ZM25.4802 27.0821V26.9178C25.5242 23.1785 28.5656 20.155 32.3118 20.1399H32.3399C32.3469 20.1399 32.3539 20.1399 32.361 20.1399C36.1378 20.1513 39.2 23.2205 39.2 26.9999C39.2 30.7864 36.1264 33.86 32.3399 33.86C28.5808 33.86 25.5243 30.8307 25.4802 27.0821ZM26.7974 20.1399C26.3135 20.5315 25.8718 20.9731 25.4802 21.457V20.1399H26.7974ZM32.3611 18.1799C32.3541 18.1799 32.347 18.1799 32.3399 18.1799C32.3292 18.1799 32.3184 18.1799 32.3077 18.1799H25.4802V4.46H32.3399C36.1264 4.46 39.2 7.53363 39.2 11.3201C39.2 15.0994 36.1379 18.1684 32.3611 18.1799ZM16.6601 35.8199C12.8736 35.8199 9.8 38.8935 9.8 42.6799C9.8 46.4664 12.8736 49.54 16.6601 49.54C20.4466 49.54 23.5202 46.4664 23.5202 42.6799V35.8199H16.6601Z" fill="#092147" stroke="#092147" stroke-width="4"/>
</svg>
