<svg width="40" height="50" viewBox="0 0 40 50" fill="none" xmlns="http://www.w3.org/2000/svg">
<path d="M40 15.6818V49.5H28.5497C28.5497 41.3182 28.5551 33.1364 28.5606 24.9546C27.2943 24.9546 26.0281 24.9491 24.7619 24.9437C22.5162 24.9383 20.2705 24.9275 18.0249 24.9113C17.9112 33.104 17.8031 41.302 17.6895 49.4946H6.11473V24.9113C4.07469 24.9383 2.04004 24.9654 0 24.987V15.5198C1.93181 15.5738 3.86902 15.6224 5.80084 15.6764C5.66556 13.1814 6.07151 11.194 6.45029 9.89243C6.77497 8.77452 7.14828 7.48919 8.14395 6.07424C9.63745 3.95183 11.5151 2.96355 12.4567 2.4829C14.1071 1.63502 15.5735 1.32177 17.0238 1.08415C19.448 0.689906 23.236 0.295674 28.2414 0.619707C28.3442 3.64401 28.4469 6.67372 28.5497 9.69802C27.5162 9.66022 26.0498 9.64942 24.2966 9.77363C21.7208 9.96265 20.4167 10.0707 19.421 10.8591C19.0044 11.1886 17.8246 12.2687 17.5974 14.8393V15.671H40V15.6818Z" fill="#092147"/>
</svg>
